<svg width="48" height="24" viewBox="0 0 48 24" fill="none" xmlns="http://www.w3.org/2000/svg">
<path fill-rule="evenodd" clip-rule="evenodd" d="M42.2459 5.35478C41.7505 5.35478 41.2811 5.46802 40.8621 5.66991C40.7577 3.99983 39.3665 2.67299 37.6707 2.67299C37.1743 2.67299 36.7041 2.78659 36.2845 2.98921C36.1655 1.33334 34.7811 0.0221634 33.0954 0.0221634C31.3318 0.0221634 29.897 1.45696 29.897 3.22061V8.52232C29.897 9.02532 30.3048 9.43311 30.8078 9.43311C31.3108 9.43311 31.7186 9.02532 31.7186 8.52232V3.22061C31.7186 2.46138 32.3362 1.84374 33.0954 1.84374C33.8546 1.84374 34.4723 2.46138 34.4723 3.22061V17.8091V20.4599C34.4723 21.2192 33.8546 21.8368 33.0954 21.8368C32.3362 21.8368 31.7186 21.2192 31.7186 20.4599V15.1582C31.7186 14.6552 31.3108 14.2474 30.8078 14.2474H18.5235C18.0205 14.2474 17.6127 14.6552 17.6127 15.1582C17.6127 15.6612 18.0205 16.069 18.5235 16.069H29.897V20.4599C29.897 22.2236 31.3318 23.6584 33.0954 23.6584C34.7811 23.6584 36.1655 22.3472 36.2845 20.6913C36.7041 20.8939 37.1743 21.0076 37.6707 21.0076C39.3665 21.0076 40.7577 19.6806 40.8621 18.0106C41.2811 18.2125 41.7505 18.3258 42.2459 18.3258C44.0095 18.3258 45.4444 16.891 45.4444 15.1274V8.55311C45.4444 6.78952 44.0095 5.35478 42.2459 5.35478ZM39.0476 17.8091C39.0476 18.5683 38.4299 19.186 37.6707 19.186C36.9115 19.186 36.2938 18.5683 36.2938 17.8091V5.87144C36.2938 5.1122 36.9115 4.49457 37.6707 4.49457C38.4299 4.49457 39.0476 5.1122 39.0476 5.87144V17.8091ZM42.2459 16.5042C43.0051 16.5042 43.6228 15.8865 43.6228 15.1274V8.55311C43.6228 7.794 43.0051 7.17636 42.2459 7.17636C41.4867 7.17636 40.8691 7.794 40.8691 8.55311V15.1274C40.8691 15.8865 41.4867 16.5042 42.2459 16.5042Z" fill="#EE4D64"/>
<path fill-rule="evenodd" clip-rule="evenodd" d="M14.9576 14.2474C14.4546 14.2474 14.0468 14.6552 14.0468 15.1582V20.4599C14.0468 21.2192 13.4292 21.8368 12.6699 21.8368C11.9107 21.8368 11.2931 21.2192 11.2931 20.4599V17.8091V5.87144V3.22061C11.2931 2.46138 11.9107 1.84374 12.6699 1.84374C13.4292 1.84374 14.0468 2.46138 14.0468 3.22061V8.52232C14.0468 9.02532 14.4546 9.43311 14.9576 9.43311H27.242C27.745 9.43311 28.1528 9.02532 28.1528 8.52232C28.1528 8.01932 27.745 7.61153 27.242 7.61153H15.8684V3.22061C15.8684 1.45696 14.4336 0.0221634 12.6699 0.0221634C10.9842 0.0221634 9.59986 1.33334 9.48079 2.98921C9.06122 2.78659 8.59095 2.67299 8.09463 2.67299C6.39873 2.67299 5.00759 3.99995 4.90316 5.66991C4.48419 5.46802 4.01477 5.35478 3.51936 5.35478C1.75571 5.35478 0.320911 6.78958 0.320911 8.55323V15.1274C0.320911 16.891 1.75571 18.3257 3.51936 18.3257C4.01477 18.3257 4.48419 18.2125 4.90316 18.0106C5.00759 19.6807 6.39873 21.0075 8.09463 21.0075C8.59095 21.0075 9.06116 20.8939 9.48079 20.6913C9.59986 22.3471 10.9842 23.6583 12.6699 23.6583C14.4336 23.6583 15.8684 22.2235 15.8684 20.4599V15.1582C15.8684 14.6552 15.4607 14.2474 14.9576 14.2474ZM3.51948 16.5042C2.76031 16.5042 2.14261 15.8865 2.14261 15.1274V8.55323C2.14261 7.794 2.76025 7.17636 3.51948 7.17636C4.27866 7.17636 4.8963 7.794 4.8963 8.55323V15.1274C4.89623 15.8865 4.2786 16.5042 3.51948 16.5042ZM6.71781 17.8091C6.71781 18.5683 7.33551 19.186 8.09469 19.186C8.85392 19.186 9.47156 18.5683 9.47156 17.8091V5.87144C9.47156 5.1122 8.85392 4.49457 8.09469 4.49457C7.33545 4.49457 6.71781 5.1122 6.71781 5.87144V17.8091Z" fill="#EE4D64"/>
<path d="M14.0442 11.8935V12.1988C14.0442 12.7018 14.452 13.1096 14.955 13.1096C15.458 13.1096 15.8658 12.7018 15.8658 12.1988V11.8935C15.8658 11.3905 15.458 10.9827 14.955 10.9827C14.452 10.9827 14.0442 11.3905 14.0442 11.8935Z" fill="#EE4D64"/>
<path d="M31.7186 11.7922V11.4868C31.7186 10.9838 31.3108 10.576 30.8078 10.576C30.3048 10.576 29.8971 10.9838 29.8971 11.4868V11.7922C29.8971 12.2952 30.3048 12.703 30.8078 12.703C31.3108 12.703 31.7186 12.2952 31.7186 11.7922Z" fill="#EE4D64"/>
</svg>
